<svg width="102" height="102" viewBox="0 0 102 102" fill="none" xmlns="http://www.w3.org/2000/svg">
<rect width="102" height="102" fill="white"/>
<path d="M80.3837 44.2556C77.1937 57.8356 44.0537 75.3056 35.3637 77.6056C35.0996 77.6943 34.8089 77.6496 34.5837 77.4856L31.0537 74.5856C31.0537 74.5856 57.9437 61.4656 62.6637 56.9256C67.3837 52.3856 80.1037 43.2356 80.1037 43.2356L80.3837 44.2556Z" fill="#231F20"/>
<path d="M30.0538 78.2956C27.7899 76.8148 25.6971 75.0876 23.8138 73.1456C21.9566 71.1576 20.3574 68.9435 19.0538 66.5556C16.4653 61.7383 15.2348 56.3081 15.4938 50.8456C15.5645 48.879 15.802 46.9219 16.2038 44.9956C16.5852 43.072 17.1615 41.1923 17.9238 39.3856C20.6026 33.0337 25.0487 27.5845 30.7338 23.6856C33.5632 21.7671 36.6644 20.2839 39.9338 19.2856C40.7638 19.0856 41.5738 18.8156 42.4138 18.6756L44.9438 18.2256L47.4838 18.0356C48.3338 17.9556 49.1838 18.0356 50.0238 18.0356H51.1538L52.2738 18.1556C53.0138 18.2456 53.7638 18.2856 54.5038 18.4056C55.9755 18.6534 57.4313 18.9873 58.8638 19.4056C60.2872 19.8121 61.6861 20.2995 63.0538 20.8656C63.7438 21.1456 64.3938 21.4956 65.0538 21.8056C65.7413 22.0956 66.4093 22.4297 67.0538 22.8056C70.4245 24.6533 73.4221 27.1117 75.8938 30.0556C78.3619 33.0554 80.0151 36.6407 80.6938 40.4656C80.6938 41.6856 80.5938 42.2156 80.3338 42.2356C80.0738 42.2556 79.6338 41.7656 78.8738 41.0156L72.8738 34.1056C68.5375 29.0314 62.6572 25.5187 56.1338 24.1056C52.8979 23.3319 49.5635 23.0521 46.2438 23.2756C44.5935 23.4148 42.9577 23.6925 41.3538 24.1056C39.7281 24.5666 38.1401 25.1516 36.6038 25.8556C32.8733 27.6847 29.6077 30.3383 27.0538 33.6156C24.4273 36.9643 22.4931 40.8021 21.3638 44.9056C20.0576 49.3702 19.9301 54.097 20.9938 58.6256C22.1118 63.1756 24.465 67.3284 27.7938 70.6256C29.8671 72.6951 32.224 74.4594 34.7938 75.8656C37.3623 77.2975 40.1342 78.3294 43.0138 78.9256C47.3241 79.8781 51.8027 79.7545 56.0538 78.5656C60.3237 77.2301 64.3056 75.1069 67.7938 72.3056C70.3815 70.0874 72.5787 67.4508 74.2938 64.5056C75.9423 61.576 77.1582 58.4233 77.9038 55.1456L78.1538 54.0756C78.2238 53.7156 78.2638 53.3556 78.3238 52.9956C78.4138 52.2756 78.5838 51.5556 78.6338 50.8256C79.0038 48.0956 78.9038 46.3356 79.1238 45.0756C79.2154 44.5294 79.3491 43.9911 79.5238 43.4656C79.7338 43.0056 79.9138 42.6456 80.0938 42.2856C80.2738 41.9256 80.3838 41.5356 80.5138 41.2856C80.7538 40.9156 81.1338 41.2356 81.9238 42.2856C82.6312 43.334 83.0864 44.5319 83.2538 45.7856C83.354 46.3405 83.4141 46.902 83.4338 47.4656C83.6228 50.9396 83.2857 54.4223 82.4338 57.7956C81.5137 61.2557 80.0884 64.5613 78.2038 67.6056C77.208 69.1317 76.1052 70.5853 74.9038 71.9556C74.3137 72.6556 73.6861 73.3233 73.0238 73.9556L70.9538 75.7756L70.4438 76.2356L69.8838 76.6356L68.7538 77.4656C67.9938 77.9756 67.2738 78.5656 66.4738 78.9956L64.0538 80.2656C63.6538 80.4756 63.2538 80.7056 62.8438 80.8956L61.5738 81.4056L59.7038 82.1656C59.0737 82.4369 58.4255 82.6642 57.7638 82.8456C57.0838 83.0356 56.4038 83.2456 55.7638 83.4056L53.6938 83.7756C50.9432 84.1684 48.1532 84.202 45.3938 83.8756C39.9488 83.1615 34.7189 81.2932 30.0538 78.3956V78.2956Z" fill="#231F20"/>
<path d="M71.5539 53.5755C65.9477 57.9484 59.941 61.7821 53.6139 65.0255C51.3239 66.1955 49.0539 67.4655 46.7639 68.4655C42.6839 70.3655 38.5406 72.1388 34.3339 73.7855C30.0926 75.4229 25.7503 76.7857 21.3339 77.8655C19.3588 78.3811 17.3554 78.7818 15.3339 79.0655C14.2832 79.2032 13.2226 79.2501 12.1639 79.2055C11.0153 79.1861 9.88258 78.9344 8.8339 78.4655C8.06282 78.0987 7.40095 77.5368 6.9139 76.8355C6.4456 76.1237 6.15102 75.3119 6.0539 74.4655C5.95708 73.6753 5.99086 72.8747 6.1539 72.0955C6.32401 71.3713 6.57911 70.6698 6.9139 70.0055C8.18096 67.4782 10.2532 65.4447 12.8039 64.2255C13.6239 63.8555 14.1139 63.9655 14.1839 64.2255C14.2539 64.4855 14.0239 65.0355 13.6939 65.7055C13.3639 66.3755 12.9039 67.1855 12.3939 68.1455C12.1339 68.6055 11.8939 69.1455 11.6039 69.6155L10.6539 71.1555C10.1472 71.8805 9.82459 72.7179 9.7139 73.5955C9.69034 73.9327 9.7276 74.2714 9.8239 74.5955C9.88253 74.8069 10.009 74.9931 10.1839 75.1255C10.8841 75.5684 11.6954 75.8042 12.5239 75.8055C13.6634 75.8558 14.8051 75.7989 15.9339 75.6355C17.1239 75.4855 18.3339 75.2555 19.5439 74.9855C20.7539 74.7155 21.9539 74.2955 23.1539 73.9155C25.5539 73.1355 27.9539 72.2755 30.3539 71.3755C36.2469 69.1504 41.9978 66.5656 47.5739 63.6355C50.6939 62.0855 53.7539 60.5255 56.7039 58.7555C59.6539 56.9855 62.5439 55.0855 65.3239 53.0455C68.7564 50.5321 72.0449 47.8278 75.1739 44.9455C77.5339 42.7255 79.8339 40.4655 82.0539 38.0855C83.1439 36.9055 84.2039 35.6755 85.3139 34.4555C86.4239 33.2355 87.4639 32.0555 88.4039 30.8155C89.1304 29.8836 89.7572 28.8781 90.2739 27.8155C90.3939 27.5555 90.5239 27.3055 90.6139 27.0455L90.7639 26.6655C90.7986 26.5737 90.8287 26.4803 90.8539 26.3855C90.9452 26.087 90.9956 25.7775 91.0039 25.4655C90.9989 25.166 90.8452 24.8885 90.5939 24.7255C90.3422 24.5794 90.0547 24.5067 89.7639 24.5155C89.4277 24.5323 89.0933 24.5758 88.7639 24.6455C88.2377 24.7387 87.7242 24.8931 87.2339 25.1055C86.3276 25.4865 85.4713 25.9768 84.6839 26.5655C83.5145 27.2037 82.3015 27.7584 81.0539 28.2255C80.6478 28.321 80.2308 28.3614 79.8139 28.3455C79.424 28.2772 79.0396 28.1803 78.6639 28.0555C78.3339 27.9455 77.9639 27.9055 77.7339 27.7955C77.3339 27.6155 77.3739 27.1555 77.6439 26.2255C78.1082 25.0007 78.9439 23.9518 80.0339 23.2255C82.0846 21.6643 84.4891 20.6338 87.0339 20.2255C87.7738 20.0309 88.5306 19.907 89.2939 19.8555C90.3554 19.7719 91.423 19.9011 92.4339 20.2355C93.4047 20.5655 94.2568 21.1742 94.8839 21.9855C95.496 22.8171 95.8254 23.8229 95.8239 24.8555C95.7639 25.9402 95.5379 27.0093 95.1539 28.0255C95.0903 28.2335 95.0135 28.4373 94.9239 28.6355L94.7139 29.1255C94.5639 29.4555 94.4039 29.7555 94.2439 30.0755C93.6174 31.2691 92.8844 32.4037 92.0539 33.4655C90.4939 35.4655 88.7939 37.2455 87.3039 38.9155C82.5145 44.2675 77.2716 49.1959 71.6339 53.6455L71.5539 53.5755Z" fill="#231F20"/>
<path d="M39.3638 45.3956C38.9456 45.6539 38.5036 45.8716 38.0438 46.0456C37.598 46.1724 37.1435 46.2659 36.6838 46.3256C35.8413 46.3997 34.9923 46.3287 34.1738 46.1156L33.3038 45.8956C33.0076 45.7919 32.72 45.6648 32.4438 45.5156C31.4513 44.9457 30.6798 44.0579 30.2538 42.9956C30.0541 42.4821 29.9491 41.9366 29.9438 41.3856C29.9438 41.1156 29.9438 40.8556 30.0338 40.6056L30.2338 39.8656C30.5171 39.0512 30.9628 38.3027 31.5438 37.6656C32.2195 36.8392 33.1927 36.3113 34.2538 36.1956C34.5738 36.1956 34.5838 36.4456 34.4538 36.8256C34.3101 37.2522 34.0784 37.644 33.7738 37.9756C33.4874 38.2094 33.2467 38.4942 33.0638 38.8156C32.8902 39.1103 32.7653 39.4311 32.6938 39.7656C32.6221 40.0635 32.5885 40.3692 32.5938 40.6756C32.6139 40.9619 32.6139 41.2493 32.5938 41.5356C32.5938 42.2656 33.2938 42.7456 34.0638 43.0356C34.9522 43.4141 35.9486 43.4533 36.8638 43.1456C37.3639 42.9241 37.7806 42.5494 38.0538 42.0756C38.5182 41.2867 38.6237 40.3371 38.3438 39.4656C38.0992 38.8015 37.673 38.2194 37.1138 37.7856C36.9796 37.7106 36.8524 37.6235 36.7338 37.5256C36.3519 37.1853 36.2137 36.6479 36.3838 36.1656C36.3838 36.0256 36.4338 35.8756 36.4638 35.7356C36.5838 35.2856 37.0338 35.0556 37.7838 35.1156C38.9512 35.316 40.0121 35.9171 40.7838 36.8156C41.2038 37.2934 41.5417 37.8374 41.7838 38.4256C41.8638 38.7356 41.9338 39.0556 41.9838 39.3756C42.0338 39.6956 41.9838 40.0356 42.0338 40.3756C42.0087 42.3897 41.0384 44.2748 39.4138 45.4656L39.3638 45.3956Z" fill="#231F20"/>
</svg>
